<svg width="54" height="40" viewBox="0 0 54 40" fill="none" xmlns="http://www.w3.org/2000/svg">
<g id="Mask group">
<mask id="mask0_9_27" style="mask-type:luminance" maskUnits="userSpaceOnUse" x="0" y="0" width="54" height="40">
<g id="Group">
<path id="Vector" d="M0 5C0 2.23858 2.23858 0 5 0H48.3333C51.0948 0 53.3333 2.23858 53.3333 5V35C53.3333 37.7614 51.0948 40 48.3333 40H5C2.23857 40 0 37.7614 0 35V5Z" fill="white"/>
</g>
</mask>
<g mask="url(#mask0_9_27)">
<g id="Group_2">
<path id="Vector_2" fill-rule="evenodd" clip-rule="evenodd" d="M0 0V40H53.3333V0H0Z" fill="#2E42A5"/>
<g id="Mask group_2">
<mask id="mask1_9_27" style="mask-type:luminance" maskUnits="userSpaceOnUse" x="0" y="0" width="54" height="40">
<g id="Group_3">
<path id="Vector_3" fill-rule="evenodd" clip-rule="evenodd" d="M0 0V40H53.3333V0H0Z" fill="white"/>
</g>
</mask>
<g mask="url(#mask1_9_27)">
<g id="Group_4">
<g id="Mask group_3">
<mask id="mask2_9_27" style="mask-type:luminance" maskUnits="userSpaceOnUse" x="0" y="0" width="54" height="40">
<g id="Group_5">
<path id="Vector_4" d="M0 0H53.3333V40H0V0Z" fill="white"/>
</g>
</mask>
<g mask="url(#mask2_9_27)">
<g id="Group_6">
<path id="Vector_5" d="M-5.93823 37.1417L5.79843 42.1067L53.5984 5.39669L59.7901 -1.97997L47.2401 -3.63831L27.7434 12.18L12.0501 22.84L-5.93823 37.1417Z" fill="white"/>
<path id="Vector_6" d="M-4.33325 40.62L1.64841 43.5L57.5667 -2.66498H49.1717L-4.33159 40.6184L-4.33325 40.62Z" fill="#F50100"/>
<path id="Vector_7" d="M59.2718 37.1417L47.5351 42.1067L-0.264876 5.39669L-6.45654 -1.97997L6.09346 -3.63831L25.5901 12.18L41.2835 22.84L59.2718 37.1417Z" fill="white"/>
<path id="Vector_8" d="M58.8718 39.6384L52.8918 42.5184L29.0818 22.7517L22.0218 20.545L-7.05322 -1.95496H1.34344L30.4001 20.0117L38.1184 22.6584L58.8718 39.6384Z" fill="#F50100"/>
<path id="Vector_9" fill-rule="evenodd" clip-rule="evenodd" d="M32.9634 -3.33331H20.37V13.3334H-3.28662V26.6667H20.37V43.3334H32.9634V26.6667H56.7134V13.3334H32.9634V-3.33331Z" fill="#F50100"/>
<g id="Mask group_4">
<mask id="mask3_9_27" style="mask-type:luminance" maskUnits="userSpaceOnUse" x="-4" y="-4" width="61" height="48">
<g id="Group_7">
<path id="Vector_10" fill-rule="evenodd" clip-rule="evenodd" d="M32.9634 -3.33331H20.37V13.3334H-3.28662V26.6667H20.37V43.3334H32.9634V26.6667H56.7134V13.3334H32.9634V-3.33331Z" fill="white"/>
</g>
</mask>
<g mask="url(#mask3_9_27)">
<path id="Vector_11" d="M20.3701 -3.33329V-6.66663H17.0368V-3.33329H20.3701ZM32.9635 -3.33329H36.2968V-6.66663H32.9635V-3.33329ZM20.3701 13.3334V16.6667H23.7035V13.3334H20.3701ZM-3.28654 13.3334V10H-6.61987V13.3334H-3.28654ZM-3.28654 26.6667H-6.61987V30H-3.28654V26.6667ZM20.3701 26.6667H23.7035V23.3334H20.3701V26.6667ZM20.3701 43.3334H17.0368V46.6667H20.3701V43.3334ZM32.9635 43.3334V46.6667H36.2968V43.3334H32.9635ZM32.9635 26.6667V23.3334H29.6301V26.6667H32.9635ZM56.7135 26.6667V30H60.0468V26.6667H56.7135ZM56.7135 13.3334H60.0468V10H56.7135V13.3334ZM32.9635 13.3334H29.6301V16.6667H32.9635V13.3334ZM20.3701 4.05312e-05H32.9635V-6.66663H20.3701V4.05312e-05ZM23.7035 13.3334V-3.33329H17.0368V13.3334H23.7035ZM-3.28654 16.6667H20.3701V10H-3.28654V16.6667ZM0.0467935 26.6667V13.3334H-6.61987V26.6667H0.0467935ZM20.3701 23.3334H-3.28654V30H20.3701V23.3334ZM23.7035 43.3334V26.6667H17.0368V43.3334H23.7035ZM32.9635 40H20.3701V46.6667H32.9635V40ZM29.6301 26.6667V43.3334H36.2968V26.6667H29.6301ZM56.7135 23.3334H32.9635V30H56.7135V23.3334ZM53.3801 13.3334V26.6667H60.0468V13.3334H53.3801ZM32.9635 16.6667H56.7135V10H32.9635V16.6667ZM29.6301 -3.33329V13.3334H36.2968V-3.33329H29.6301Z" fill="white"/>
</g>
</g>
</g>
</g>
</g>
</g>
</g>
</g>
</g>
</g>
</g>
</svg>
