<svg width="46" height="38" viewBox="0 0 46 38" fill="none" xmlns="http://www.w3.org/2000/svg">
<path id="Vector" d="M40.7818 37.75L40.7794 1.717C41.4245 0.655468 42.0919 0.24728 42.6516 0.25C43.207 0.252625 43.8672 0.665688 44.4998 1.69544L42.7723 20.0997L42.7522 20.3238L42.8905 20.5025C44.8755 23.0496 45.5692 27.4502 45.0029 31.1722C44.7198 33.0333 44.1271 34.7178 43.2971 35.9087C42.6011 36.9073 41.7709 37.5443 40.782 37.75H40.7818ZM5.87167 37.7496L5.87017 31.4565L4.69267 31.458V37.7493H3.35158L3.35177 31.4577H2.17258V37.7493H0.806641V28.0716C0.806547 27.0013 1.3907 26.4078 2.31039 26.0408L2.69102 25.8888L2.68258 25.4791C2.49508 17.5506 2.30973 9.62228 2.12364 1.69394C2.76489 0.644688 3.42358 0.247375 3.97202 0.25C4.52045 0.252625 5.17858 0.660343 5.81167 1.69675C5.59464 9.62303 5.37761 17.5495 5.16095 25.4759L5.1497 25.8884L5.53155 26.0389C6.49942 26.4239 7.12895 27.0771 7.12895 28.0711V37.7496H5.87167ZM23.008 34.0938C19.0048 34.0938 15.1657 32.5035 12.3351 29.6729C9.50443 26.8423 7.9142 23.0031 7.9142 19C7.9142 14.9969 9.50443 11.1577 12.3351 8.32711C15.1657 5.49648 19.0048 3.90625 23.008 3.90625C27.0111 3.90625 30.8502 5.49648 33.6808 8.32711C36.5115 11.1577 38.1017 14.9969 38.1017 19C38.1017 23.0031 36.5115 26.8423 33.6808 29.6729C30.8502 32.5035 27.0111 34.0938 23.008 34.0938Z" fill="white"/>
</svg>
