<svg width="291" height="566" viewBox="0 0 291 566" fill="none" xmlns="http://www.w3.org/2000/svg">
<g clip-path="url(#clip0_60_544)">
<path d="M288.738 402.238C288.363 401.879 287.974 401.505 287.599 401.146C286.086 400.643 286.749 398.415 285.091 398.027C285.048 397.898 285.005 397.768 284.962 397.639C285.279 396.949 285.106 396.115 285.336 395.396C285.61 393.154 283.694 392.536 282.411 391.444C282.123 390.696 281.633 390.265 281.013 390.035C281.013 389.805 281.027 389.575 281.071 389.331C280.667 387.936 281.085 386.283 279.759 385.162C279.644 384.875 279.543 384.602 279.428 384.314C279.572 383.725 279.586 383.064 280.004 382.604C279.86 378.55 280.883 374.382 278.779 370.515C279.226 369.854 279.24 369.308 278.822 368.862C278.952 368.575 279.082 368.273 279.226 367.986C279.139 366.131 279.961 364.162 278.433 362.509C278.231 362.437 278.059 362.351 277.886 362.25C278.174 361.948 278.26 361.546 277.986 361C277.669 359.764 277.352 358.527 277.035 357.291C276.675 356.601 276.171 356.156 275.551 355.911C275.508 355.581 275.436 355.265 275.349 354.963C275.147 354.086 275.018 353.18 274.513 352.404C275.364 351.125 275.378 349.846 274.153 348.609C273.476 347.618 272.784 346.612 272.107 345.62C269.498 343.909 271.386 341.25 270.723 339.137C270.42 338.217 270.161 337.269 269.57 336.535C269.599 336.133 269.642 335.73 269.671 335.314C270.046 333.33 268.042 332.468 267.567 330.887C266.947 330.125 266.327 329.363 265.722 328.601C265.275 326.747 264.829 324.878 264.396 323.024C264.094 322.693 263.935 322.291 263.82 321.874C264.007 322.262 264.209 322.65 264.396 323.024C264.094 319.359 266.63 314.457 260.217 313.465C257.306 311.999 257.306 308.909 256.225 306.408C254.438 302.211 254.467 297.165 250.403 294.046C250.835 291.646 249.019 290.827 247.448 289.835C246.266 287.894 246.079 285.048 242.981 284.818C240.156 283.237 238.7 279.399 234.679 279.787C234.391 278.954 234.261 278.005 233.771 277.315C224.591 264.652 211.347 257.278 198.304 249.358C187.741 242.947 177.22 236.062 169.265 226.187C167.146 221.947 164.307 217.836 166.685 212.733C166.772 211.31 166.772 209.887 166.267 208.522C165.547 205.992 164.581 202.93 162.218 202.226C152.648 199.38 147.604 190.023 138.64 186.443C137.833 186.127 137.156 185.466 136.421 184.963C140.499 179.314 133.639 176.525 133.063 172.098C132.861 172.185 132.659 172.285 132.457 172.386C132.602 172.228 132.789 172.113 133.063 172.098C133.524 171.466 133.985 170.833 134.446 170.201C134.734 168.548 136.161 166.952 134.893 165.213C134.965 165.199 135.023 165.199 135.095 165.17C137.357 163.575 137.487 161.16 137.588 158.731C137.79 157.437 138.539 156.172 137.804 154.835C137.674 154.735 137.545 154.62 137.415 154.505C137.429 154.145 137.444 153.786 137.458 153.427C136.651 152.622 135.844 151.817 135.037 151.012C135.023 150.911 134.936 150.811 134.778 150.753H134.677C134.172 150.149 133.855 149.459 133.452 148.813C134.345 147.576 134.172 145.737 135.599 144.831C136.132 144.27 136.68 143.724 137.213 143.164C137.516 140.016 139.879 137.558 140.297 134.453C140.341 134.424 140.384 134.396 140.427 134.367C141.061 134.367 141.609 134.123 142.056 133.677C149.161 133.749 152.547 128.488 156.323 123.773C161.122 122.307 158.009 119.418 157.534 117.018C157.606 113.525 157.159 110.018 157.433 106.525C159.321 104.757 156.928 102.816 157.663 100.991C159.71 98.576 160.531 93.5882 165.59 97.5554C166.08 97.9435 168.53 95.8162 170.072 94.8531C170.821 94.4075 171.225 93.6313 171.816 93.042C173.228 93.2001 174.77 92.6683 176.053 93.5451C180.448 94.5513 182.048 92.2802 182.207 88.313C183.878 87.3212 180.967 85.1939 183.187 84.3458C183.028 83.2678 183.691 82.0891 183.446 81.0111C183.677 80.9967 183.907 80.9679 184.138 80.9105C184.167 80.9536 184.21 80.9823 184.253 81.0254C185.118 81.7729 186.126 81.6435 187.15 81.4998C187.769 81.2123 188.346 80.8386 188.865 80.393C189.614 79.9043 190.407 79.6743 191.214 79.5881C192.367 79.5881 193.505 79.5881 194.658 79.5881C194.874 79.5881 195.076 79.5881 195.292 79.5881C196.517 79.5881 197.757 79.5881 198.982 79.5881C199.472 79.1425 199.947 78.6825 200.437 78.2369C201.331 78.165 202.239 78.0932 203.132 78.0213C205.049 77.0583 207.369 77.0151 209.027 75.4484C212.601 73.4217 212.759 71.4524 208.897 69.5838C208.45 69.0951 208.003 68.6064 207.571 68.1177C201.893 65.7748 196.215 63.5181 190.09 66.6947C187.841 66.1916 185.579 65.6885 183.331 65.1711C182.797 64.2799 182.264 63.3743 181.731 62.4831C180.419 60.7439 177.955 60.2408 176.86 58.4585C173.026 52.1914 167.103 50.8403 160.546 50.8403C160.33 50.2941 159.926 49.8629 159.119 49.6904C157.346 47.7068 157.88 44.7027 156.093 42.7191C155.948 42.3597 155.675 42.2304 155.3 42.3597C155.127 41.1811 154.94 40.0024 154.767 38.8094C154.551 38.5219 154.334 38.2344 154.118 37.9326C154.205 37.7601 154.291 37.5732 154.378 37.4007C155.689 35.3309 156.294 32.9448 157.418 30.8031C158.499 28.4458 160.776 27.3103 162.592 25.7004C163.5 24.6367 164.005 23.4293 163.774 22.0063C161.857 17.1911 158.946 14.8194 153.138 14.9631C143.67 15.2075 134.057 14.9056 125.352 10.0904C120.842 9.4148 119.559 4.9014 116.403 2.63033C112.958 -0.129453 109.283 -0.876894 105.248 1.30793C99.7718 3.0328 92.8974 1.42293 89.4098 7.91992C88.4442 10.2197 88.7901 12.8214 87.7236 15.1069C84.6683 20.842 79.8981 21.302 74.3784 19.3615C68.6281 17.3492 63.6273 18.0391 59.9235 23.3287C57.7329 26.4622 55.1532 27.8277 51.4927 25.5423C48.6391 23.7599 46.0883 24.0905 44.2003 27.1234C44.1283 27.4396 43.9842 27.7271 43.8112 28.0002C43.2059 27.7559 42.6295 27.4109 42.0674 27.0659C34.5878 22.3082 34.5301 22.2507 28.7366 29.6676C27.3099 31.4931 26.2434 31.6512 25.004 29.797C24.0817 28.4314 23.289 26.9797 21.5884 26.4335C20.9831 26.261 20.3923 26.261 19.8158 26.3616C18.8935 25.8585 17.7549 26.031 16.7605 25.7435C16.1696 26.2322 15.5644 26.7209 14.9735 27.1953C9.84292 27.8852 7.72441 33.0167 4.0062 35.0003C-1.65759 38.0332 -0.403775 40.3043 2.50738 43.8115C4.68355 44.8464 6.85971 45.8813 9.03587 46.9162C14.3394 47.2612 16.1696 51.2859 17.9855 55.325C23.7358 59.594 28.5637 64.2799 26.1137 72.4299C23.0728 75.3478 25.7246 76.9433 27.6269 78.625C33.4925 83.7852 39.0986 89.1467 41.9809 96.6642C42.788 97.2248 43.5806 97.7998 44.3877 98.3603C44.503 98.3603 44.6327 98.3603 44.748 98.3603C49.5183 99.6971 54.5912 97.5985 59.3038 99.5677L59.7073 99.884L60.1829 99.6971C65.5873 103.808 70.2134 101.508 74.681 97.9579C78.4713 97.0523 82.2616 96.8655 86.0374 98.0729C87.9686 100.387 89.3809 103.233 92.6668 104.124C95.4338 104.872 98.6765 104.857 100.146 108.091C100.319 114.042 98.9215 120.654 108.361 121.244C111.46 121.445 110.854 124.593 108.548 125.642C104.499 127.496 103.778 130.874 102.914 134.597C102.193 137.73 101.141 140.893 98.8926 143.394C96.8174 145.579 93.5459 144.615 91.2689 146.297C87.248 146.11 83.9189 148.108 80.4313 149.632C74.4072 148.568 74.6234 152.018 76.5113 155.669C77.7651 158.098 80.0998 159.981 81.9589 162.108C82.276 163.028 82.6075 163.948 82.9245 164.854C77.2175 170.373 77.2895 171.955 83.328 174.801C83.8036 174.801 84.2792 174.801 84.7548 174.801C86.7004 177.215 88.6459 179.616 90.6059 182.031C94.1944 187.579 100.161 183.252 104.571 185.38C105.666 186.918 106.906 188.154 109.038 187.751C109.903 188.24 110.782 188.729 111.647 189.218C113.665 191.561 116.432 190.655 118.925 190.914C124.344 197.253 128.725 204.368 137.415 207.631C141.292 209.082 144.073 214.041 144.851 218.943C145.241 221.386 159.84 243.393 162.131 244.801C162.318 244.916 162.592 244.873 162.823 244.902C165.691 246.167 168.962 244.37 171.772 246.095C176.615 249.574 174.381 256.861 179.022 260.124C183.777 263.459 190.709 264.422 190.551 272.327C190.551 272.629 191.214 273.219 191.56 273.219C198.059 273.262 201.864 278.637 207.168 281.009C208.825 281.024 210.396 279.787 212.111 280.679C213.451 281.599 213.509 282.935 213.581 284.272C211.822 284.143 211.405 285.12 210.309 288.972C210.252 289.863 210.18 290.769 210.122 291.66C209.473 295.024 208.148 298.531 211.923 301.046C212.341 301.147 212.759 301.204 213.192 301.219C214.662 302.297 216.117 303.361 217.587 304.439C217.285 306.264 216.895 308.104 218.38 309.656C216.694 311.755 213.97 312.919 213.004 315.665C207.355 318.784 207.038 321.63 211.376 330.153C211.967 332.971 212.557 335.788 213.134 338.605C212.846 340.56 213.22 342.687 211.534 344.254C206.303 345.677 204.919 348.538 207.816 353.396C211.88 360.209 219.504 364.536 221.435 372.829C221.522 376.595 221.608 380.361 221.695 384.127C221.176 386.24 221.853 388.31 221.867 390.351C221.896 397.725 222.646 405.458 220.714 412.386C218.308 420.982 211.722 426.803 202.815 429.894C196.863 431.964 190.926 434.752 188.014 441.062C186.948 443.362 185.319 443.822 182.97 443.951C166.743 444.814 166.743 444.871 167.651 460.582C168.141 463.442 170.533 464.204 172.767 464.794C178.287 466.245 180.131 470.097 180.146 475.315C180.146 476.896 181.068 478.88 179.223 479.785C177.422 480.662 175.534 480.044 174.093 478.564C171.715 476.12 168.847 474.64 165.503 474.05C165.129 474.237 164.84 474.151 164.624 473.792C164.149 473.231 163.673 473.202 163.183 473.777C157.145 475.358 151.38 478.88 144.765 476.436C144.261 476.034 143.742 475.617 143.237 475.215C141.364 475.416 139.476 475.617 137.602 475.818C133.942 475.933 135.714 479.326 134.504 480.921C132.962 481.956 132.544 483.681 131.823 485.233C129.907 486.987 127.514 486.814 125.18 486.872C124.315 487.073 123.421 487.202 122.715 487.806C121.822 489.646 120.308 491.04 119.112 492.65C118.694 493.915 116.864 495.122 118.997 496.459C121.173 498.946 117.959 502.741 121.072 505.012C122.182 507.311 124.646 505.658 126.16 506.765C129.388 507.311 132.587 508.116 135.902 507.714C138.943 507.081 141.969 506.305 145.154 507.225C142.113 510.229 137.415 511.81 136.349 516.755C134.59 518.192 132.371 519.342 133.048 522.246C133.135 523.669 133.221 525.106 133.308 526.529C133.308 529.85 133.308 533.156 133.293 536.476C132.904 537.267 132.529 538.057 132.14 538.862C133.855 540.041 133.423 541.809 133.149 543.332C132.198 548.478 132.501 553.049 138.179 555.335C135.383 559.561 128.739 558.137 127.471 563.715C128.826 566.302 130.987 566.23 133.524 565.871C138.064 565.238 142.099 563.441 146.019 561.257C149.953 559.977 153.571 558.238 156.078 554.76C156.424 554.199 156.669 553.595 156.813 552.949C157.231 550.318 157.217 547.601 158.413 545.115C159.148 544.18 160.214 543.85 161.295 543.577C163.097 543.174 164.797 542.513 166.382 541.536C169.25 539.566 171.268 536.605 174.208 534.722C176.975 533.084 180.391 532.121 180.996 528.225C181.529 526.084 178.834 523.712 181.443 521.685C182.999 522.447 184.397 523.655 186.299 523.554C188.389 523.482 189.946 522.433 191.171 520.823C192.698 518.437 194.644 516.482 196.906 514.8C197.368 514.369 197.713 513.852 197.915 513.248C197.915 510.862 196.733 508.447 198.16 506.133C197.065 502.453 194.759 498.759 198.276 495.137C198.492 494.749 198.679 494.332 198.852 493.915C198.982 494.706 199.083 495.496 199.486 496.186C199.702 496.502 199.991 496.732 200.293 496.905C202.368 498.96 204.89 498.385 207.369 498.026C208.753 498.414 210.136 498.816 211.534 499.205C211.88 498.917 212.226 498.615 212.586 498.328C212.817 498.472 213.062 498.615 213.292 498.759C214.215 499.046 215.123 499.018 216.031 498.687C216.261 498.558 216.492 498.443 216.708 498.328C219.1 499.578 221.06 498.04 223.078 496.79C224.015 496.215 224.937 495.625 225.874 495.051C226.652 494.979 227.445 494.95 228.266 495.036C230.788 495.036 232.878 494.432 233.454 491.543C233.454 491.356 233.296 491.17 233.094 490.983C233.123 490.983 233.137 490.997 233.166 491.011C235.083 490.048 237.245 489.387 238.426 487.447C238.888 487.447 239.334 487.404 239.767 487.26C240.761 486.656 240.948 485.492 241.568 484.644C243.139 484.759 244.71 484.471 246.266 483.882C248.673 483.034 247.146 481.094 247.434 479.656C249.235 477.054 253.573 477.586 254.539 473.95C259.684 471.722 264.713 469.336 267.74 464.233C268.446 463.687 269.152 463.155 269.858 462.609C269.959 461.143 270.046 459.691 270.132 458.225H270.219C270.219 458.153 270.219 458.081 270.219 458.009C271.242 458.483 272.092 458.038 272.049 456.816C271.948 453.984 273.85 453.323 275.81 452.518C281.604 450.937 280.004 446.381 279.918 442.413C285.077 437.196 277.424 435.083 277.194 431.173C277.741 430.253 278.289 429.333 278.837 428.413C279.269 428.442 279.687 428.37 280.091 428.226C283.694 426.732 282.339 422.477 284.601 420.22C287.844 417.992 286.475 416.037 284.227 414.14C283.391 413.421 283.924 411.567 282.728 411.15C282.915 409.54 282.901 407.887 283.679 406.378C283.737 406.335 283.78 406.277 283.823 406.234C284.501 406.507 285.351 406.45 285.898 406.996C287.758 407.327 286.374 411.581 289.703 410.13C291.202 407.312 288.925 404.926 288.781 402.296L288.738 402.238ZM30.7831 35.8052C30.6966 35.7046 30.5957 35.604 30.4948 35.5034C30.7254 35.4171 30.9416 35.3453 31.1722 35.259C31.0569 35.4459 30.9128 35.6184 30.7975 35.7909L30.7831 35.8052ZM74.9981 93.8757C74.9981 93.8757 75.0846 93.8326 75.1278 93.8038C75.1278 93.8182 75.1422 93.8326 75.1566 93.8469C75.099 93.8469 75.0557 93.8469 74.9981 93.8613V93.8757ZM248.702 469.494C248.788 469.681 248.947 469.896 249.149 470.126C248.774 469.939 248.529 469.738 248.702 469.494ZM249.005 296.217C249.077 296.116 249.105 296.001 249.134 295.901C249.149 295.915 249.178 295.944 249.192 295.958C249.134 296.059 249.077 296.145 248.99 296.231L249.005 296.217Z" fill="#A84324"/>
<path d="M108.174 503.977C107.079 499.952 105.479 496.244 101.818 493.829C100.291 494.533 99.7142 496.775 97.538 496.402C97.1057 496.847 96.6589 497.293 96.2266 497.738C97.6101 500.355 98.8351 502.999 98.201 506.09C98.0713 508.893 99.1666 510.905 101.919 511.854C103.879 512.155 105.565 511.537 107.05 510.272C108.779 508.418 108.073 506.133 108.174 503.991V503.977Z" fill="#A84324"/>
</g>
<g clip-path="url(#clip1_60_544)">
<mask id="mask0_60_544" style="mask-type:alpha" maskUnits="userSpaceOnUse" x="32" y="110" width="275" height="294">
<path d="M287.5 396C260 417 246 382.5 219 400.5L176.5 325L33 177.5L77.5 110.5H142L238 220L304 343.5C307.667 354 309.5 379.2 287.5 396Z" fill="#D9D9D9" stroke="black"/>
</mask>
<g mask="url(#mask0_60_544)">
<path d="M288.738 402.238C288.363 401.879 287.974 401.505 287.599 401.146C286.086 400.643 286.749 398.415 285.091 398.027C285.048 397.898 285.005 397.768 284.962 397.639C285.279 396.949 285.106 396.115 285.336 395.396C285.61 393.154 283.694 392.536 282.411 391.444C282.123 390.696 281.633 390.265 281.013 390.035C281.013 389.805 281.027 389.575 281.071 389.331C280.667 387.936 281.085 386.283 279.759 385.162C279.644 384.875 279.543 384.602 279.428 384.314C279.572 383.725 279.586 383.064 280.004 382.604C279.86 378.55 280.883 374.382 278.779 370.515C279.226 369.854 279.24 369.308 278.822 368.862C278.952 368.575 279.082 368.273 279.226 367.986C279.139 366.131 279.961 364.162 278.433 362.509C278.231 362.437 278.059 362.351 277.886 362.25C278.174 361.948 278.26 361.546 277.986 361C277.669 359.764 277.352 358.527 277.035 357.291C276.675 356.601 276.171 356.156 275.551 355.911C275.508 355.581 275.436 355.265 275.349 354.963C275.147 354.086 275.018 353.18 274.513 352.404C275.364 351.125 275.378 349.846 274.153 348.609C273.476 347.618 272.784 346.612 272.107 345.62C269.498 343.909 271.386 341.25 270.723 339.137C270.42 338.217 270.161 337.269 269.57 336.535C269.599 336.133 269.642 335.73 269.671 335.314C270.046 333.33 268.042 332.468 267.567 330.887C266.947 330.125 266.327 329.363 265.722 328.601C265.275 326.747 264.829 324.878 264.396 323.024C264.094 322.693 263.935 322.291 263.82 321.874C264.007 322.262 264.209 322.65 264.396 323.024C264.094 319.359 266.63 314.457 260.217 313.465C257.306 311.999 257.306 308.909 256.225 306.408C254.438 302.211 254.467 297.165 250.403 294.046C250.835 291.646 249.019 290.827 247.448 289.835C246.266 287.894 246.079 285.048 242.981 284.818C240.156 283.237 238.7 279.399 234.679 279.787C234.391 278.954 234.261 278.005 233.771 277.315C224.591 264.652 211.347 257.278 198.304 249.358C187.741 242.947 177.22 236.062 169.265 226.187C167.146 221.947 164.307 217.836 166.685 212.733C166.772 211.31 166.772 209.887 166.267 208.522C165.547 205.992 164.581 202.93 162.218 202.226C152.648 199.38 147.604 190.023 138.64 186.443C137.833 186.127 137.156 185.466 136.421 184.963C140.499 179.314 133.639 176.525 133.063 172.098C132.861 172.185 132.659 172.285 132.457 172.386C132.602 172.228 132.789 172.113 133.063 172.098C133.524 171.466 133.985 170.833 134.446 170.201C134.734 168.548 136.161 166.952 134.893 165.213C134.965 165.199 135.023 165.199 135.095 165.17C137.357 163.575 137.487 161.16 137.588 158.731C137.79 157.437 138.539 156.172 137.804 154.835C137.674 154.735 137.545 154.62 137.415 154.505C137.429 154.145 137.444 153.786 137.458 153.427C136.651 152.622 135.844 151.817 135.037 151.012C135.023 150.911 134.936 150.811 134.778 150.753H134.677C134.172 150.149 133.855 149.459 133.452 148.813C134.345 147.576 134.172 145.737 135.599 144.831C136.132 144.27 136.68 143.724 137.213 143.164C137.516 140.016 139.879 137.558 140.297 134.453C140.341 134.424 140.384 134.396 140.427 134.367C141.061 134.367 141.609 134.123 142.056 133.677C149.161 133.749 152.547 128.488 156.323 123.773C161.122 122.307 158.009 119.418 157.534 117.018C157.606 113.525 157.159 110.018 157.433 106.525C159.321 104.757 156.928 102.816 157.663 100.991C159.71 98.576 160.531 93.5882 165.59 97.5554C166.08 97.9435 168.53 95.8162 170.072 94.8531C170.821 94.4075 171.225 93.6313 171.816 93.042C173.228 93.2001 174.77 92.6683 176.053 93.5451C180.448 94.5513 182.048 92.2802 182.207 88.313C183.878 87.3212 180.967 85.1939 183.187 84.3458C183.028 83.2678 183.691 82.0891 183.446 81.0111C183.677 80.9967 183.907 80.9679 184.138 80.9105C184.167 80.9536 184.21 80.9823 184.253 81.0254C185.118 81.7729 186.126 81.6435 187.15 81.4998C187.769 81.2123 188.346 80.8386 188.865 80.393C189.614 79.9043 190.407 79.6743 191.214 79.5881C192.367 79.5881 193.505 79.5881 194.658 79.5881C194.874 79.5881 195.076 79.5881 195.292 79.5881C196.517 79.5881 197.757 79.5881 198.982 79.5881C199.472 79.1425 199.947 78.6825 200.437 78.2369C201.331 78.165 202.239 78.0932 203.132 78.0213C205.049 77.0583 207.369 77.0151 209.027 75.4484C212.601 73.4217 212.759 71.4524 208.897 69.5838C208.45 69.0951 208.003 68.6064 207.571 68.1177C201.893 65.7748 196.215 63.5181 190.09 66.6947C187.841 66.1916 185.579 65.6885 183.331 65.1711C182.797 64.2799 182.264 63.3743 181.731 62.4831C180.419 60.7439 177.955 60.2408 176.86 58.4585C173.026 52.1914 167.103 50.8403 160.546 50.8403C160.33 50.2941 159.926 49.8629 159.119 49.6904C157.346 47.7068 157.88 44.7027 156.093 42.7191C155.948 42.3597 155.675 42.2304 155.3 42.3597C155.127 41.1811 154.94 40.0024 154.767 38.8094C154.551 38.5219 154.334 38.2344 154.118 37.9326C154.205 37.7601 154.291 37.5732 154.378 37.4007C155.689 35.3309 156.294 32.9448 157.418 30.8031C158.499 28.4458 160.776 27.3103 162.592 25.7004C163.5 24.6367 164.005 23.4293 163.774 22.0063C161.857 17.1911 158.946 14.8194 153.138 14.9631C143.67 15.2075 134.057 14.9056 125.352 10.0904C120.842 9.4148 119.559 4.9014 116.403 2.63033C112.958 -0.129453 109.283 -0.876894 105.248 1.30793C99.7718 3.0328 92.8974 1.42293 89.4098 7.91992C88.4442 10.2197 88.7901 12.8214 87.7236 15.1069C84.6683 20.842 79.8981 21.302 74.3784 19.3615C68.6281 17.3492 63.6273 18.0391 59.9235 23.3287C57.7329 26.4622 55.1532 27.8277 51.4927 25.5423C48.6391 23.7599 46.0883 24.0905 44.2003 27.1234C44.1283 27.4396 43.9842 27.7271 43.8112 28.0002C43.2059 27.7559 42.6295 27.4109 42.0674 27.0659C34.5878 22.3082 34.5301 22.2507 28.7366 29.6676C27.3099 31.4931 26.2434 31.6512 25.004 29.797C24.0817 28.4314 23.289 26.9797 21.5884 26.4335C20.9831 26.261 20.3923 26.261 19.8158 26.3616C18.8935 25.8585 17.7549 26.031 16.7605 25.7435C16.1696 26.2322 15.5644 26.7209 14.9735 27.1953C9.84292 27.8852 7.72441 33.0167 4.0062 35.0003C-1.65759 38.0332 -0.403775 40.3043 2.50738 43.8115C4.68355 44.8464 6.85971 45.8813 9.03587 46.9162C14.3394 47.2612 16.1696 51.2859 17.9855 55.325C23.7358 59.594 28.5637 64.2799 26.1137 72.4299C23.0728 75.3478 25.7246 76.9433 27.6269 78.625C33.4925 83.7852 39.0986 89.1467 41.9809 96.6642C42.788 97.2248 43.5806 97.7998 44.3877 98.3603C44.503 98.3603 44.6327 98.3603 44.748 98.3603C49.5183 99.6971 54.5912 97.5985 59.3038 99.5677L59.7073 99.884L60.1829 99.6971C65.5873 103.808 70.2134 101.508 74.681 97.9579C78.4713 97.0523 82.2616 96.8655 86.0374 98.0729C87.9686 100.387 89.3809 103.233 92.6668 104.124C95.4338 104.872 98.6765 104.857 100.146 108.091C100.319 114.042 98.9215 120.654 108.361 121.244C111.46 121.445 110.854 124.593 108.548 125.642C104.499 127.496 103.778 130.874 102.914 134.597C102.193 137.73 101.141 140.893 98.8926 143.394C96.8174 145.579 93.5459 144.615 91.2689 146.297C87.248 146.11 83.9189 148.108 80.4313 149.632C74.4072 148.568 74.6234 152.018 76.5113 155.669C77.7651 158.098 80.0998 159.981 81.9589 162.108C82.276 163.028 82.6075 163.948 82.9245 164.854C77.2175 170.373 77.2895 171.955 83.328 174.801C83.8036 174.801 84.2792 174.801 84.7548 174.801C86.7004 177.215 88.6459 179.616 90.6059 182.031C94.1944 187.579 100.161 183.252 104.571 185.38C105.666 186.918 106.906 188.154 109.038 187.751C109.903 188.24 110.782 188.729 111.647 189.218C113.665 191.561 116.432 190.655 118.925 190.914C124.344 197.253 128.725 204.368 137.415 207.631C141.292 209.082 144.073 214.041 144.851 218.943C145.241 221.386 159.84 243.393 162.131 244.801C162.318 244.916 162.592 244.873 162.823 244.902C165.691 246.167 168.962 244.37 171.772 246.095C176.615 249.574 174.381 256.861 179.022 260.124C183.777 263.459 190.709 264.422 190.551 272.327C190.551 272.629 191.214 273.219 191.56 273.219C198.059 273.262 201.864 278.637 207.168 281.009C208.825 281.024 210.396 279.787 212.111 280.679C213.451 281.599 213.509 282.935 213.581 284.272C211.822 284.143 211.405 285.12 210.309 288.972C210.252 289.863 210.18 290.769 210.122 291.66C209.473 295.024 208.148 298.531 211.923 301.046C212.341 301.147 212.759 301.204 213.192 301.219C214.662 302.297 216.117 303.361 217.587 304.439C217.285 306.264 216.895 308.104 218.38 309.656C216.694 311.755 213.97 312.919 213.004 315.665C207.355 318.784 207.038 321.63 211.376 330.153C211.967 332.971 212.557 335.788 213.134 338.605C212.846 340.56 213.22 342.687 211.534 344.254C206.303 345.677 204.919 348.538 207.816 353.396C211.88 360.209 219.504 364.536 221.435 372.829C221.522 376.595 221.608 380.361 221.695 384.127C221.176 386.24 221.853 388.31 221.867 390.351C221.896 397.725 222.646 405.458 220.714 412.386C218.308 420.982 211.722 426.803 202.815 429.894C196.863 431.964 190.926 434.752 188.014 441.062C186.948 443.362 185.319 443.822 182.97 443.951C166.743 444.814 166.743 444.871 167.651 460.582C168.141 463.442 170.533 464.204 172.767 464.794C178.287 466.245 180.131 470.097 180.146 475.315C180.146 476.896 181.068 478.88 179.223 479.785C177.422 480.662 175.534 480.044 174.093 478.564C171.715 476.12 168.847 474.64 165.503 474.05C165.129 474.237 164.84 474.151 164.624 473.792C164.149 473.231 163.673 473.202 163.183 473.777C157.145 475.358 151.38 478.88 144.765 476.436C144.261 476.034 143.742 475.617 143.237 475.215C141.364 475.416 139.476 475.617 137.602 475.818C133.942 475.933 135.714 479.326 134.504 480.921C132.962 481.956 132.544 483.681 131.823 485.233C129.907 486.987 127.514 486.814 125.18 486.872C124.315 487.073 123.421 487.202 122.715 487.806C121.822 489.646 120.308 491.04 119.112 492.65C118.694 493.915 116.864 495.122 118.997 496.459C121.173 498.946 117.959 502.741 121.072 505.012C122.182 507.311 124.646 505.658 126.16 506.765C129.388 507.311 132.587 508.116 135.902 507.714C138.943 507.081 141.969 506.305 145.154 507.225C142.113 510.229 137.415 511.81 136.349 516.755C134.59 518.192 132.371 519.342 133.048 522.246C133.135 523.669 133.221 525.106 133.308 526.529C133.308 529.85 133.308 533.156 133.293 536.476C132.904 537.267 132.529 538.057 132.14 538.862C133.855 540.041 133.423 541.809 133.149 543.332C132.198 548.478 132.501 553.049 138.179 555.335C135.383 559.561 128.739 558.137 127.471 563.715C128.826 566.302 130.987 566.23 133.524 565.871C138.064 565.238 142.099 563.441 146.019 561.257C149.953 559.977 153.571 558.238 156.078 554.76C156.424 554.199 156.669 553.595 156.813 552.949C157.231 550.318 157.217 547.601 158.413 545.115C159.148 544.18 160.214 543.85 161.295 543.577C163.097 543.174 164.797 542.513 166.382 541.536C169.25 539.566 171.268 536.605 174.208 534.722C176.975 533.084 180.391 532.121 180.996 528.225C181.529 526.084 178.834 523.712 181.443 521.685C182.999 522.447 184.397 523.655 186.299 523.554C188.389 523.482 189.946 522.433 191.171 520.823C192.698 518.437 194.644 516.482 196.906 514.8C197.368 514.369 197.713 513.852 197.915 513.248C197.915 510.862 196.733 508.447 198.16 506.133C197.065 502.453 194.759 498.759 198.276 495.137C198.492 494.749 198.679 494.332 198.852 493.915C198.982 494.706 199.083 495.496 199.486 496.186C199.702 496.502 199.991 496.732 200.293 496.905C202.368 498.96 204.89 498.385 207.369 498.026C208.753 498.414 210.136 498.816 211.534 499.205C211.88 498.917 212.226 498.615 212.586 498.328C212.817 498.472 213.062 498.615 213.292 498.759C214.215 499.046 215.123 499.018 216.031 498.687C216.261 498.558 216.492 498.443 216.708 498.328C219.1 499.578 221.06 498.04 223.078 496.79C224.015 496.215 224.937 495.625 225.874 495.051C226.652 494.979 227.445 494.95 228.266 495.036C230.788 495.036 232.878 494.432 233.454 491.543C233.454 491.356 233.296 491.17 233.094 490.983C233.123 490.983 233.137 490.997 233.166 491.011C235.083 490.048 237.245 489.387 238.426 487.447C238.888 487.447 239.334 487.404 239.767 487.26C240.761 486.656 240.948 485.492 241.568 484.644C243.139 484.759 244.71 484.471 246.266 483.882C248.673 483.034 247.146 481.094 247.434 479.656C249.235 477.054 253.573 477.586 254.539 473.95C259.684 471.722 264.713 469.336 267.74 464.233C268.446 463.687 269.152 463.155 269.858 462.609C269.959 461.143 270.046 459.691 270.132 458.225H270.219C270.219 458.153 270.219 458.081 270.219 458.009C271.242 458.483 272.092 458.038 272.049 456.816C271.948 453.984 273.85 453.323 275.81 452.518C281.604 450.937 280.004 446.381 279.918 442.413C285.077 437.196 277.424 435.083 277.194 431.173C277.741 430.253 278.289 429.333 278.837 428.413C279.269 428.442 279.687 428.37 280.091 428.226C283.694 426.732 282.339 422.477 284.601 420.22C287.844 417.992 286.475 416.037 284.227 414.14C283.391 413.421 283.924 411.567 282.728 411.15C282.915 409.54 282.901 407.887 283.679 406.378C283.737 406.335 283.78 406.277 283.823 406.234C284.501 406.507 285.351 406.45 285.898 406.996C287.758 407.327 286.374 411.581 289.703 410.13C291.202 407.312 288.925 404.926 288.781 402.296L288.738 402.238ZM30.7831 35.8052C30.6966 35.7046 30.5957 35.604 30.4948 35.5034C30.7254 35.4171 30.9416 35.3453 31.1722 35.259C31.0569 35.4459 30.9128 35.6184 30.7975 35.7909L30.7831 35.8052ZM74.9981 93.8757C74.9981 93.8757 75.0846 93.8326 75.1278 93.8038C75.1278 93.8182 75.1422 93.8326 75.1566 93.8469C75.099 93.8469 75.0557 93.8469 74.9981 93.8613V93.8757ZM248.702 469.494C248.788 469.681 248.947 469.896 249.149 470.126C248.774 469.939 248.529 469.738 248.702 469.494ZM249.005 296.217C249.077 296.116 249.105 296.001 249.134 295.901C249.149 295.915 249.178 295.944 249.192 295.958C249.134 296.059 249.077 296.145 248.99 296.231L249.005 296.217Z" fill="#D07C1B"/>
</g>
</g>
<g clip-path="url(#clip2_60_544)">
<mask id="mask1_60_544" style="mask-type:luminance" maskUnits="userSpaceOnUse" x="-43" y="-26" width="279" height="162">
<path d="M148 134C117 140.5 130 109.5 96.5 127.5H69.5L16 102.5L-42 35.5L4 -17L148 -24.5L234.5 53.5C216 78.1667 172.8 128.8 148 134Z" fill="white" stroke="black"/>
</mask>
<g mask="url(#mask1_60_544)">
<path d="M288.738 402.238C288.363 401.879 287.974 401.505 287.599 401.146C286.086 400.643 286.749 398.415 285.091 398.027C285.048 397.898 285.005 397.768 284.962 397.639C285.279 396.949 285.106 396.115 285.336 395.396C285.61 393.154 283.694 392.536 282.411 391.444C282.123 390.696 281.633 390.265 281.013 390.035C281.013 389.805 281.027 389.575 281.071 389.331C280.667 387.936 281.085 386.283 279.759 385.162C279.644 384.875 279.543 384.602 279.428 384.314C279.572 383.725 279.586 383.064 280.004 382.604C279.86 378.55 280.883 374.382 278.779 370.515C279.226 369.854 279.24 369.308 278.822 368.862C278.952 368.575 279.082 368.273 279.226 367.986C279.139 366.131 279.961 364.162 278.433 362.509C278.231 362.437 278.059 362.351 277.886 362.25C278.174 361.948 278.26 361.546 277.986 361C277.669 359.764 277.352 358.527 277.035 357.291C276.675 356.601 276.171 356.156 275.551 355.911C275.508 355.581 275.436 355.265 275.349 354.963C275.147 354.086 275.018 353.18 274.513 352.404C275.364 351.125 275.378 349.846 274.153 348.609C273.476 347.618 272.784 346.612 272.107 345.62C269.498 343.909 271.386 341.25 270.723 339.137C270.42 338.217 270.161 337.269 269.57 336.535C269.599 336.133 269.642 335.73 269.671 335.314C270.046 333.33 268.042 332.468 267.567 330.887C266.947 330.125 266.327 329.363 265.722 328.601C265.275 326.747 264.829 324.878 264.396 323.024C264.094 322.693 263.935 322.291 263.82 321.874C264.007 322.262 264.209 322.65 264.396 323.024C264.094 319.359 266.63 314.457 260.217 313.465C257.306 311.999 257.306 308.909 256.225 306.408C254.438 302.211 254.467 297.165 250.403 294.046C250.835 291.646 249.019 290.827 247.448 289.835C246.266 287.894 246.079 285.048 242.981 284.818C240.156 283.237 238.7 279.399 234.679 279.787C234.391 278.954 234.261 278.005 233.771 277.315C224.591 264.652 211.347 257.278 198.304 249.358C187.741 242.947 177.22 236.062 169.265 226.187C167.146 221.947 164.307 217.836 166.685 212.733C166.772 211.31 166.772 209.887 166.267 208.522C165.547 205.992 164.581 202.93 162.218 202.226C152.648 199.38 147.604 190.023 138.64 186.443C137.833 186.127 137.156 185.466 136.421 184.963C140.499 179.314 133.639 176.525 133.063 172.098C132.861 172.185 132.659 172.285 132.457 172.386C132.602 172.228 132.789 172.113 133.063 172.098C133.524 171.466 133.985 170.833 134.446 170.201C134.734 168.548 136.161 166.952 134.893 165.213C134.965 165.199 135.023 165.199 135.095 165.17C137.357 163.575 137.487 161.16 137.588 158.731C137.79 157.437 138.539 156.172 137.804 154.835C137.674 154.735 137.545 154.62 137.415 154.505C137.429 154.145 137.444 153.786 137.458 153.427C136.651 152.622 135.844 151.817 135.037 151.012C135.023 150.911 134.936 150.811 134.778 150.753H134.677C134.172 150.149 133.855 149.459 133.452 148.813C134.345 147.576 134.172 145.737 135.599 144.831C136.132 144.27 136.68 143.724 137.213 143.164C137.516 140.016 139.879 137.558 140.297 134.453C140.341 134.424 140.384 134.396 140.427 134.367C141.061 134.367 141.609 134.123 142.056 133.677C149.161 133.749 152.547 128.488 156.323 123.773C161.122 122.307 158.009 119.418 157.534 117.018C157.606 113.525 157.159 110.018 157.433 106.525C159.321 104.757 156.928 102.816 157.663 100.991C159.71 98.576 160.531 93.5882 165.59 97.5554C166.08 97.9435 168.53 95.8162 170.072 94.8531C170.821 94.4075 171.225 93.6313 171.816 93.042C173.228 93.2001 174.77 92.6683 176.053 93.5451C180.448 94.5513 182.048 92.2802 182.207 88.313C183.878 87.3212 180.967 85.1939 183.187 84.3458C183.028 83.2678 183.691 82.0891 183.446 81.0111C183.677 80.9967 183.907 80.9679 184.138 80.9105C184.167 80.9536 184.21 80.9823 184.253 81.0254C185.118 81.7729 186.126 81.6435 187.15 81.4998C187.769 81.2123 188.346 80.8386 188.865 80.393C189.614 79.9043 190.407 79.6743 191.214 79.5881C192.367 79.5881 193.505 79.5881 194.658 79.5881C194.874 79.5881 195.076 79.5881 195.292 79.5881C196.517 79.5881 197.757 79.5881 198.982 79.5881C199.472 79.1425 199.947 78.6825 200.437 78.2369C201.331 78.165 202.239 78.0932 203.132 78.0213C205.049 77.0583 207.369 77.0151 209.027 75.4484C212.601 73.4217 212.759 71.4524 208.897 69.5838C208.45 69.0951 208.003 68.6064 207.571 68.1177C201.893 65.7748 196.215 63.5181 190.09 66.6947C187.841 66.1916 185.579 65.6885 183.331 65.1711C182.797 64.2799 182.264 63.3743 181.731 62.4831C180.419 60.7439 177.955 60.2408 176.86 58.4585C173.026 52.1914 167.103 50.8403 160.546 50.8403C160.33 50.2941 159.926 49.8629 159.119 49.6904C157.346 47.7068 157.88 44.7027 156.093 42.7191C155.948 42.3597 155.675 42.2304 155.3 42.3597C155.127 41.1811 154.94 40.0024 154.767 38.8094C154.551 38.5219 154.334 38.2344 154.118 37.9326C154.205 37.7601 154.291 37.5732 154.378 37.4007C155.689 35.3309 156.294 32.9448 157.418 30.8031C158.499 28.4458 160.776 27.3103 162.592 25.7004C163.5 24.6367 164.005 23.4293 163.774 22.0063C161.857 17.1911 158.946 14.8194 153.138 14.9631C143.67 15.2075 134.057 14.9056 125.352 10.0904C120.842 9.4148 119.559 4.9014 116.403 2.63033C112.958 -0.129453 109.283 -0.876894 105.248 1.30793C99.7718 3.0328 92.8974 1.42293 89.4098 7.91992C88.4442 10.2197 88.7901 12.8214 87.7236 15.1069C84.6683 20.842 79.8981 21.302 74.3784 19.3615C68.6281 17.3492 63.6273 18.0391 59.9235 23.3287C57.7329 26.4622 55.1532 27.8277 51.4927 25.5423C48.6391 23.7599 46.0883 24.0905 44.2003 27.1234C44.1283 27.4396 43.9842 27.7271 43.8112 28.0002C43.2059 27.7559 42.6295 27.4109 42.0674 27.0659C34.5878 22.3082 34.5301 22.2507 28.7366 29.6676C27.3099 31.4931 26.2434 31.6512 25.004 29.797C24.0817 28.4314 23.289 26.9797 21.5884 26.4335C20.9831 26.261 20.3923 26.261 19.8158 26.3616C18.8935 25.8585 17.7549 26.031 16.7605 25.7435C16.1696 26.2322 15.5644 26.7209 14.9735 27.1953C9.84292 27.8852 7.72441 33.0167 4.0062 35.0003C-1.65759 38.0332 -0.403775 40.3043 2.50738 43.8115C4.68355 44.8464 6.85971 45.8813 9.03587 46.9162C14.3394 47.2612 16.1696 51.2859 17.9855 55.325C23.7358 59.594 28.5637 64.2799 26.1137 72.4299C23.0728 75.3478 25.7246 76.9433 27.6269 78.625C33.4925 83.7852 39.0986 89.1467 41.9809 96.6642C42.788 97.2248 43.5806 97.7998 44.3877 98.3603C44.503 98.3603 44.6327 98.3603 44.748 98.3603C49.5183 99.6971 54.5912 97.5985 59.3038 99.5677L59.7073 99.884L60.1829 99.6971C65.5873 103.808 70.2134 101.508 74.681 97.9579C78.4713 97.0523 82.2616 96.8655 86.0374 98.0729C87.9686 100.387 89.3809 103.233 92.6668 104.124C95.4338 104.872 98.6765 104.857 100.146 108.091C100.319 114.042 98.9215 120.654 108.361 121.244C111.46 121.445 110.854 124.593 108.548 125.642C104.499 127.496 103.778 130.874 102.914 134.597C102.193 137.73 101.141 140.893 98.8926 143.394C96.8174 145.579 93.5459 144.615 91.2689 146.297C87.248 146.11 83.9189 148.108 80.4313 149.632C74.4072 148.568 74.6234 152.018 76.5113 155.669C77.7651 158.098 80.0998 159.981 81.9589 162.108C82.276 163.028 82.6075 163.948 82.9245 164.854C77.2175 170.373 77.2895 171.955 83.328 174.801C83.8036 174.801 84.2792 174.801 84.7548 174.801C86.7004 177.215 88.6459 179.616 90.6059 182.031C94.1944 187.579 100.161 183.252 104.571 185.38C105.666 186.918 106.906 188.154 109.038 187.751C109.903 188.24 110.782 188.729 111.647 189.218C113.665 191.561 116.432 190.655 118.925 190.914C124.344 197.253 128.725 204.368 137.415 207.631C141.292 209.082 144.073 214.041 144.851 218.943C145.241 221.386 159.84 243.393 162.131 244.801C162.318 244.916 162.592 244.873 162.823 244.902C165.691 246.167 168.962 244.37 171.772 246.095C176.615 249.574 174.381 256.861 179.022 260.124C183.777 263.459 190.709 264.422 190.551 272.327C190.551 272.629 191.214 273.219 191.56 273.219C198.059 273.262 201.864 278.637 207.168 281.009C208.825 281.024 210.396 279.787 212.111 280.679C213.451 281.599 213.509 282.935 213.581 284.272C211.822 284.143 211.405 285.12 210.309 288.972C210.252 289.863 210.18 290.769 210.122 291.66C209.473 295.024 208.148 298.531 211.923 301.046C212.341 301.147 212.759 301.204 213.192 301.219C214.662 302.297 216.117 303.361 217.587 304.439C217.285 306.264 216.895 308.104 218.38 309.656C216.694 311.755 213.97 312.919 213.004 315.665C207.355 318.784 207.038 321.63 211.376 330.153C211.967 332.971 212.557 335.788 213.134 338.605C212.846 340.56 213.22 342.687 211.534 344.254C206.303 345.677 204.919 348.538 207.816 353.396C211.88 360.209 219.504 364.536 221.435 372.829C221.522 376.595 221.608 380.361 221.695 384.127C221.176 386.24 221.853 388.31 221.867 390.351C221.896 397.725 222.646 405.458 220.714 412.386C218.308 420.982 211.722 426.803 202.815 429.894C196.863 431.964 190.926 434.752 188.014 441.062C186.948 443.362 185.319 443.822 182.97 443.951C166.743 444.814 166.743 444.871 167.651 460.582C168.141 463.442 170.533 464.204 172.767 464.794C178.287 466.245 180.131 470.097 180.146 475.315C180.146 476.896 181.068 478.88 179.223 479.785C177.422 480.662 175.534 480.044 174.093 478.564C171.715 476.12 168.847 474.64 165.503 474.05C165.129 474.237 164.84 474.151 164.624 473.792C164.149 473.231 163.673 473.202 163.183 473.777C157.145 475.358 151.38 478.88 144.765 476.436C144.261 476.034 143.742 475.617 143.237 475.215C141.364 475.416 139.476 475.617 137.602 475.818C133.942 475.933 135.714 479.326 134.504 480.921C132.962 481.956 132.544 483.681 131.823 485.233C129.907 486.987 127.514 486.814 125.18 486.872C124.315 487.073 123.421 487.202 122.715 487.806C121.822 489.646 120.308 491.04 119.112 492.65C118.694 493.915 116.864 495.122 118.997 496.459C121.173 498.946 117.959 502.741 121.072 505.012C122.182 507.311 124.646 505.658 126.16 506.765C129.388 507.311 132.587 508.116 135.902 507.714C138.943 507.081 141.969 506.305 145.154 507.225C142.113 510.229 137.415 511.81 136.349 516.755C134.59 518.192 132.371 519.342 133.048 522.246C133.135 523.669 133.221 525.106 133.308 526.529C133.308 529.85 133.308 533.156 133.293 536.476C132.904 537.267 132.529 538.057 132.14 538.862C133.855 540.041 133.423 541.809 133.149 543.332C132.198 548.478 132.501 553.049 138.179 555.335C135.383 559.561 128.739 558.137 127.471 563.715C128.826 566.302 130.987 566.23 133.524 565.871C138.064 565.238 142.099 563.441 146.019 561.257C149.953 559.977 153.571 558.238 156.078 554.76C156.424 554.199 156.669 553.595 156.813 552.949C157.231 550.318 157.217 547.601 158.413 545.115C159.148 544.18 160.214 543.85 161.295 543.577C163.097 543.174 164.797 542.513 166.382 541.536C169.25 539.566 171.268 536.605 174.208 534.722C176.975 533.084 180.391 532.121 180.996 528.225C181.529 526.084 178.834 523.712 181.443 521.685C182.999 522.447 184.397 523.655 186.299 523.554C188.389 523.482 189.946 522.433 191.171 520.823C192.698 518.437 194.644 516.482 196.906 514.8C197.368 514.369 197.713 513.852 197.915 513.248C197.915 510.862 196.733 508.447 198.16 506.133C197.065 502.453 194.759 498.759 198.276 495.137C198.492 494.749 198.679 494.332 198.852 493.915C198.982 494.706 199.083 495.496 199.486 496.186C199.702 496.502 199.991 496.732 200.293 496.905C202.368 498.96 204.89 498.385 207.369 498.026C208.753 498.414 210.136 498.816 211.534 499.205C211.88 498.917 212.226 498.615 212.586 498.328C212.817 498.472 213.062 498.615 213.292 498.759C214.215 499.046 215.123 499.018 216.031 498.687C216.261 498.558 216.492 498.443 216.708 498.328C219.1 499.578 221.06 498.04 223.078 496.79C224.015 496.215 224.937 495.625 225.874 495.051C226.652 494.979 227.445 494.95 228.266 495.036C230.788 495.036 232.878 494.432 233.454 491.543C233.454 491.356 233.296 491.17 233.094 490.983C233.123 490.983 233.137 490.997 233.166 491.011C235.083 490.048 237.245 489.387 238.426 487.447C238.888 487.447 239.334 487.404 239.767 487.26C240.761 486.656 240.948 485.492 241.568 484.644C243.139 484.759 244.71 484.471 246.266 483.882C248.673 483.034 247.146 481.094 247.434 479.656C249.235 477.054 253.573 477.586 254.539 473.95C259.684 471.722 264.713 469.336 267.74 464.233C268.446 463.687 269.152 463.155 269.858 462.609C269.959 461.143 270.046 459.691 270.132 458.225H270.219C270.219 458.153 270.219 458.081 270.219 458.009C271.242 458.483 272.092 458.038 272.049 456.816C271.948 453.984 273.85 453.323 275.81 452.518C281.604 450.937 280.004 446.381 279.918 442.413C285.077 437.196 277.424 435.083 277.194 431.173C277.741 430.253 278.289 429.333 278.837 428.413C279.269 428.442 279.687 428.37 280.091 428.226C283.694 426.732 282.339 422.477 284.601 420.22C287.844 417.992 286.475 416.037 284.227 414.14C283.391 413.421 283.924 411.567 282.728 411.15C282.915 409.54 282.901 407.887 283.679 406.378C283.737 406.335 283.78 406.277 283.823 406.234C284.501 406.507 285.351 406.45 285.898 406.996C287.758 407.327 286.374 411.581 289.703 410.13C291.202 407.312 288.925 404.926 288.781 402.296L288.738 402.238ZM30.7831 35.8052C30.6966 35.7046 30.5957 35.604 30.4948 35.5034C30.7254 35.4171 30.9416 35.3453 31.1722 35.259C31.0569 35.4459 30.9128 35.6184 30.7975 35.7909L30.7831 35.8052ZM74.9981 93.8757C74.9981 93.8757 75.0846 93.8326 75.1278 93.8038C75.1278 93.8182 75.1422 93.8326 75.1566 93.8469C75.099 93.8469 75.0557 93.8469 74.9981 93.8613V93.8757ZM248.702 469.494C248.788 469.681 248.947 469.896 249.149 470.126C248.774 469.939 248.529 469.738 248.702 469.494ZM249.005 296.217C249.077 296.116 249.105 296.001 249.134 295.901C249.149 295.915 249.178 295.944 249.192 295.958C249.134 296.059 249.077 296.145 248.99 296.231L249.005 296.217Z" fill="#607812"/>
</g>
</g>
<defs>
<clipPath id="clip0_60_544">
<rect width="290.165" height="566" fill="white"/>
</clipPath>
<clipPath id="clip1_60_544">
<rect width="290.165" height="566" fill="white"/>
</clipPath>
<clipPath id="clip2_60_544">
<rect width="290.165" height="566" fill="white"/>
</clipPath>
</defs>
</svg>
